# xmcd CD database file
#
# Track frame offsets:
#	150
#	75611
#	91452
#	108380
#	147798
#	177343
#	198769
#	214992
#	234971
#	272042
#
# Disc length: 3884 seconds
#
# Revision: 0
# Processed by: cddbd v1.4PL0 Copyright (c) Steve Scherf et al.
# Submitted via: CDex 1.51
#
DISCID=840f2a0a
DTITLE=Chamras Saewataporn - The River Of Forever
DYEAR=1900
DGENRE=New Age
TTITLE0=The River Of Forever
TTITLE1=The Last Poem
TTITLE2=When The Soft Wind Blows
TTITLE3=The River To Nimanoradee Paradise
TTITLE4=Two Banks Of River
TTITLE5=Somewhere In My Dream
TTITLE6=Return To Eternity
TTITLE7=The River That Never Return
TTITLE8=The Bridge Over Endless River
TTITLE9=The River Opera
EXTD=
EXTT0=
EXTT1=
EXTT2=
EXTT3=
EXTT4=
EXTT5=
EXTT6=
EXTT7=
EXTT8=
EXTT9=
PLAYORDER=
